<svg width="24" height="24" viewBox="0 0 24 24" fill="none" xmlns="http://www.w3.org/2000/svg">
<path d="M12 13.375C12.7594 13.375 13.375 12.7594 13.375 12C13.375 11.2406 12.7594 10.625 12 10.625C11.2406 10.625 10.625 11.2406 10.625 12C10.625 12.7594 11.2406 13.375 12 13.375Z" fill="black"/>
<path d="M12 1C5.92525 1 1 5.92525 1 12C1 18.0748 5.92525 23 12 23C18.0748 23 23 18.0748 23 12C23 5.92525 18.0748 1 12 1ZM14.75 14.75L7.1875 16.8125L9.25 9.25L16.8125 7.1875L14.75 14.75Z" fill="black"/>
</svg>
