<svg width="24" height="24" viewBox="0 0 24 24" fill="none" xmlns="http://www.w3.org/2000/svg">
<path d="M2.00001 12.25C2.00001 6.58907 6.58908 2 12.25 2C17.9109 2 22.5 6.58907 22.5 12.25C22.5 17.9109 17.9109 22.5 12.25 22.5C10.5163 22.5 8.88069 22.0688 7.44715 21.3073L3.39987 22.4583C3.21176 22.5116 3.01284 22.5137 2.82363 22.4645C2.63443 22.4152 2.46181 22.3163 2.3236 22.178C2.18538 22.0397 2.0866 21.8671 2.03743 21.6778C1.98827 21.4886 1.99052 21.2897 2.04394 21.1016L3.19487 17.0551C2.40821 15.5757 1.99785 13.9255 2.00001 12.25ZM7.85715 10.0536C7.85715 10.2477 7.93429 10.434 8.07159 10.5713C8.20889 10.7086 8.39512 10.7857 8.58929 10.7857H15.9107C16.1049 10.7857 16.2911 10.7086 16.4284 10.5713C16.5657 10.434 16.6429 10.2477 16.6429 10.0536C16.6429 9.8594 16.5657 9.67317 16.4284 9.53587C16.2911 9.39857 16.1049 9.32143 15.9107 9.32143H8.58929C8.39512 9.32143 8.20889 9.39857 8.07159 9.53587C7.93429 9.67317 7.85715 9.8594 7.85715 10.0536ZM8.58929 13.7143C8.39512 13.7143 8.20889 13.7914 8.07159 13.9287C7.93429 14.066 7.85715 14.2523 7.85715 14.4464C7.85715 14.6406 7.93429 14.8268 8.07159 14.9641C8.20889 15.1014 8.39512 15.1786 8.58929 15.1786H12.9822C13.1763 15.1786 13.3626 15.1014 13.4999 14.9641C13.6372 14.8268 13.7143 14.6406 13.7143 14.4464C13.7143 14.2523 13.6372 14.066 13.4999 13.9287C13.3626 13.7914 13.1763 13.7143 12.9822 13.7143H8.58929Z" fill="black"/>
</svg>
