<svg width="24" height="24" viewBox="0 0 24 24" fill="none" xmlns="http://www.w3.org/2000/svg">
<path d="M22.1423 16.58L20.9091 15.9777C20.7378 15.8714 20.498 15.8714 20.3267 15.9777L12.9618 19.5916C12.5507 19.8042 12.0369 19.8042 11.6258 19.5916L4.22661 15.9777C4.05534 15.8714 3.81555 15.8714 3.64427 15.9777L2.41107 16.58C1.86298 16.8634 1.86298 17.6075 2.41107 17.8909L11.5916 22.3907C12.0026 22.6033 12.5165 22.6033 12.9275 22.3907L22.108 17.8909C22.6904 17.6075 22.6904 16.828 22.1423 16.58Z" fill="#000000"/>
<path d="M22.1423 11.6193L20.8748 11.017C20.7036 10.9107 20.4638 10.9107 20.2925 11.017L12.9618 14.6309C12.5507 14.8435 12.0369 14.8435 11.6258 14.6309L4.26087 11.017C4.08959 10.9107 3.8498 10.9107 3.67852 11.017L2.41107 11.6193C1.86298 11.9028 1.86298 12.6468 2.41107 12.9303L11.5916 17.4654C12.0026 17.678 12.5165 17.678 12.9275 17.4654L22.108 12.9657C22.6904 12.6822 22.6904 11.9028 22.1423 11.6193Z" fill="#000000"/>
<path d="M2.41107 7.97013L11.5916 12.4699C12.0026 12.6825 12.5165 12.6825 12.9275 12.4699L22.108 7.97013C22.6561 7.68668 22.6561 6.94263 22.108 6.65918L12.9275 2.15944C12.5165 1.94685 12.0026 1.94685 11.5916 2.15944L2.41107 6.69461C1.86298 6.94263 1.86298 7.72211 2.41107 7.97013Z" fill="#000000"/>
</svg>
