<!-- person.svg -->
<svg width="24" height="24" viewBox="0 0 24 24" fill="none" xmlns="http://www.w3.org/2000/svg">
<path d="M21.4807 17.704C20.5929 16.3627 19.1389 14.8436 16.7718 13.98C15.418 14.785 13.7733 15.2589 12.0002 15.2589C10.2262 15.2589 8.58153 14.785 7.22765 13.98C4.86056 14.8436 3.40651 16.3628 2.51926 17.704C1.34172 19.4829 2.26494 22 4.30145 22C6.33801 22 12.0003 22 12.0003 22C12.0003 22 17.662 22 19.6986 22C21.7351 22 22.6583 19.4829 21.4807 17.704Z" fill="#000000"/>
<path d="M12.0005 14C15.3144 14 18 11.6008 18 8.64177V7.35819C18 4.39919 15.3144 2 12.0005 2C8.68607 2 6 4.39919 6 7.35823V8.64181C6 11.6008 8.68611 14 12.0005 14Z" fill="#000000"/>
</svg>