<svg width="24" height="24" viewBox="0 0 24 24" fill="none" xmlns="http://www.w3.org/2000/svg">
<path fill-rule="evenodd" clip-rule="evenodd" d="M19.4464 3.06836V4.95985L4.31446 9.37332V8.11233H1.79248V15.6783H4.31446V14.4173L6.97837 15.1943C6.88575 15.5503 6.83645 15.9238 6.83645 16.3088C6.83645 18.7463 8.81242 20.7222 11.2499 20.7222C13.2141 20.7222 14.8785 19.4392 15.4509 17.6655L19.4464 18.8308V20.7222H21.9683V3.06836H19.4464ZM9.40244 15.9012L13.0269 16.9584C12.7619 17.683 12.0663 18.2003 11.2499 18.2003C10.2053 18.2003 9.35843 17.3534 9.35843 16.3088C9.35843 16.1689 9.37361 16.0325 9.40244 15.9012Z" fill="#000000"/>
</svg>
