<!-- order.svg -->
<svg width="24" height="24" viewBox="0 0 24 24" fill="none" xmlns="http://www.w3.org/2000/svg">
<path d="M21.8662 16.1501L20.633 15.5678C20.4617 15.465 20.2219 15.465 20.0506 15.5678L12.6857 19.0619C12.2746 19.2674 11.7608 19.2674 11.3497 19.0619L3.95049 15.5678C3.77921 15.465 3.53942 15.465 3.36815 15.5678L2.13494 16.1501C1.58685 16.4242 1.58685 17.1436 2.13494 17.4176L11.3154 21.7681C11.7265 21.9736 12.2403 21.9736 12.6514 21.7681L21.8319 17.4176C22.4143 17.1436 22.4143 16.3899 21.8662 16.1501Z" fill="#000000"/>
<path d="M21.8662 11.3542L20.5987 10.7719C20.4274 10.6691 20.1876 10.6691 20.0164 10.7719L12.6857 14.266C12.2746 14.4715 11.7608 14.4715 11.3497 14.266L3.98475 10.7719C3.81347 10.6691 3.57368 10.6691 3.4024 10.7719L2.13494 11.3542C1.58685 11.6283 1.58685 12.3477 2.13494 12.6217L11.3154 17.0064C11.7265 17.212 12.2403 17.212 12.6514 17.0064L21.8319 12.656C22.4143 12.3819 22.4143 11.6283 21.8662 11.3542Z" fill="#000000"/>
<path d="M2.13494 7.82602L11.3154 12.1765C11.7265 12.382 12.2403 12.382 12.6514 12.1765L21.8319 7.82602C22.38 7.55198 22.38 6.83261 21.8319 6.55857L12.6514 2.20811C12.2403 2.00257 11.7265 2.00257 11.3154 2.20811L2.13494 6.59282C1.58685 6.83261 1.58685 7.58624 2.13494 7.82602Z" fill="#000000"/>
</svg>