<!-- wallet.svg -->
<svg width="24" height="24" viewBox="0 0 24 24" fill="none" xmlns="http://www.w3.org/2000/svg">
<path fill-rule="evenodd" clip-rule="evenodd" d="M20.7507 7.00452C20.7009 6.99995 20.6467 6.99998 20.5905 7L20.5765 7.00002H18.3719C16.5548 7.00002 15 9.08329 15 11.8C15 14.5167 16.5548 16.6 18.3719 16.6H20.5765H20.5905C20.6467 16.6 20.7009 16.6001 20.7507 16.5955C21.4889 16.5276 22.1416 15.6863 22.1965 14.5113C22.2001 14.4342 22.2 14.3512 22.2 14.2742V14.2534V9.34668V9.32579C22.2 9.24881 22.2001 9.16575 22.1965 9.08871C22.1416 7.91368 21.4889 7.07241 20.7507 7.00452ZM18.1765 13.08C18.6443 13.08 19.0235 12.5069 19.0235 11.8C19.0235 11.0931 18.6443 10.52 18.1765 10.52C17.7087 10.52 17.3294 11.0931 17.3294 11.8C17.3294 12.5069 17.7087 13.08 18.1765 13.08Z" fill="#000000"/>
<path fill-rule="evenodd" clip-rule="evenodd" d="M21.76 18C21.9157 17.9955 22.0336 18.1534 21.9913 18.3175C21.7817 19.1317 21.4488 19.8257 20.9148 20.4101C20.1331 21.2653 19.1419 21.6448 17.9173 21.825C16.7274 22 15.207 22 13.2874 22H11.0806C9.16099 22 7.64056 22 6.45064 21.825C5.22604 21.6448 4.23485 21.2653 3.45317 20.4101C2.6715 19.5547 2.32459 18.4702 2.15996 17.1303C1.99997 15.8283 1.99998 14.1648 2 12.0645V11.9355C1.99998 9.83523 1.99997 8.17165 2.15996 6.86969C2.32459 5.52978 2.6715 4.44527 3.45317 3.58999C4.23485 2.73472 5.22604 2.35515 6.45064 2.17502C7.64056 1.99997 9.16098 1.99998 11.0806 2H13.2874C15.207 1.99998 16.7274 1.99997 17.9173 2.17502C19.1419 2.35515 20.1331 2.73472 20.9148 3.58999C21.4488 4.17431 21.7816 4.86827 21.9913 5.68249C22.0336 5.84657 21.9157 6.00442 21.76 6L19.1237 6.00001C16.1609 6.00001 13.5493 8.56104 13.5493 12C13.5493 15.439 16.1609 18 19.1237 18H21.76ZM7.22256 16.2857C6.78991 16.2857 6.43917 15.9019 6.43917 15.4286V8.57143C6.43917 8.09805 6.78991 7.71429 7.22256 7.71429C7.6552 7.71429 8.00594 8.09805 8.00594 8.57143V15.4286C8.00594 15.9019 7.6552 16.2857 7.22256 16.2857Z" fill="#000000"/>
</svg>