<svg width="24" height="24" viewBox="0 0 24 24" fill="none" xmlns="http://www.w3.org/2000/svg">
<g clip-path="url(#clip0_168_490)">
<path d="M23.714 12.2244C23.714 11.2412 23.6342 10.5236 23.4616 9.77954H12.2336V14.2175H18.8242C18.6913 15.3204 17.9738 16.9814 16.3793 18.0975L16.3569 18.246L19.907 20.9962L20.1529 21.0208C22.4118 18.9346 23.714 15.8652 23.714 12.2244Z" fill="#4285F4"/>
<path d="M12.2336 23.9176C15.4624 23.9176 18.173 22.8545 20.1529 21.0209L16.3793 18.0976C15.3694 18.8018 14.0141 19.2934 12.2336 19.2934C9.07118 19.2934 6.38712 17.2074 5.43032 14.324L5.29008 14.3359L1.59866 17.1927L1.55038 17.3269C3.51692 21.2334 7.55634 23.9176 12.2336 23.9176Z" fill="#34A853"/>
<path d="M5.43032 14.324C5.17786 13.58 5.03176 12.7826 5.03176 11.9589C5.03176 11.135 5.17786 10.3378 5.41704 9.59366L5.41035 9.43519L1.67267 6.53247L1.55038 6.59064C0.73988 8.21174 0.274811 10.0322 0.274811 11.9589C0.274811 13.8855 0.73988 15.7059 1.55038 17.327L5.43032 14.324Z" fill="#FBBC05"/>
<path d="M12.2336 4.62403C14.4791 4.62403 15.9939 5.59401 16.8576 6.40461L20.2326 3.10928C18.1598 1.1826 15.4624 0 12.2336 0C7.55634 0 3.51692 2.68406 1.55038 6.59056L5.41704 9.59359C6.38712 6.7102 9.07118 4.62403 12.2336 4.62403Z" fill="#EB4335"/>
</g>
<defs>
<clipPath id="clip0_168_490">
<rect width="24" height="24" fill="white"/>
</clipPath>
</defs>
</svg>
